IKResults
version=1
nRows=9
nColumns=67
inDegrees=yes

Units are S.I. units (second, meters, Newtons, ...)
Angles are in degrees.

endheader
time	pelvis_tilt	pelvis_list	pelvis_rotation	pelvis_tx	pelvis_ty	pelvis_tz	hip_flexion_r	hip_adduction_r	hip_rotation_r	knee_angle_r	knee_rot_r	knee_adduc_r	ankle_angle_r	ankle_rot_r	ankle_add_r	subtalar_angle_r	mtp_angle_r	mtp_rot_r	mtp_add_r	hip_flexion_l	hip_adduction_l	hip_rotation_l	knee_angle_l	knee_rot_l	knee_adduc_l	ankle_angle_l	ankle_rot_l	ankle_add_l	subtalar_angle_l	mtp_angle_l	mtp_rot_l	mtp_add_l	lumbar_extension	lumbar_bending	lumbar_rotation	neck_flexion	neck_lateral_bending	neck_rotation	arm_flex_r	arm_add_r	arm_rot_r	elbow_flex_r	elbow_rot_r	elbow_add_r	pro_sup_r	wrist_flex_r	wrist_adduc_r	wrist_rot_r	wrist_dev_r	hand_finger_flex_r	hand_finger_adduc_r	hand_finger_rot_r	arm_flex_l	arm_add_l	arm_rot_l	elbow_flex_l	elbow_rot_l	elbow_add_l	pro_sup_l	wrist_flex_l	wrist_adduc_l	wrist_rot_l	wrist_dev_l	hand_finger_flex_l	hand_finger_adduc_l	hand_finger_rot_l
      1.87500000	     15.78690408	      7.29883145	     -7.96416890	      0.56285615	      0.76157910	      0.54261058	      2.51069152	    -12.22412575	      7.67910536	    -60.56503325	     -5.00000000	      4.48401699	      2.32257586	     -5.00000000	      2.23803064	     -5.05431386	     23.77315592	     -2.00000000	      1.99962528	     -9.56355855	     11.70666642	     -4.86389433	    -14.54155156	      5.00000000	      2.69516823	      7.66176586	      1.62686725	      4.02915537	     -1.62333783	     20.51525842	      2.00000000	      2.00000000	    -28.32820302	    -13.53000075	     -1.43543842	      0.00000000	      0.00000000	      0.00000000	      0.00000000	      0.00000000	      0.00000000	      0.00000000	      0.00000000	      0.00000000	     -0.00042092	      0.00000000	      0.00000000	      0.00000000	      0.00000000	      0.00000000	      0.00000000	      0.00000000	      0.00000000	      0.00000000	      0.00000000	      0.00000000	      0.00000000	      0.00000000	      0.00000000	      0.00000000	      0.00000000	      0.00000000	      0.00000000	      0.00000000	      0.00000000	      0.00000000
      1.88000000	     15.73030365	      6.99986151	     -7.91197053	      0.56897971	      0.76215440	      0.54189467	      3.53721312	    -11.98623323	      7.54454276	    -60.16927578	     -5.00000000	      4.61382141	      2.52682004	     -5.00000000	      2.29390128	     -5.13260837	     23.76922794	     -2.00000000	      2.00000000	    -10.44083183	     11.59569083	     -4.80273545	    -13.83119444	      5.00000000	      2.81464724	      7.82071725	      1.59672393	      4.06073139	     -1.59182698	     20.49267211	      2.00000000	      2.00000000	    -28.43133172	    -13.08766321	     -1.76177940	      0.00000000	      0.00000000	      0.00000000	      0.00000000	      0.00000000	      0.00000000	      0.00000000	      0.00000000	      0.00000000	     -0.00042092	      0.00000000	      0.00000000	      0.00000000	      0.00000000	      0.00000000	      0.00000000	      0.00000000	      0.00000000	      0.00000000	      0.00000000	      0.00000000	      0.00000000	      0.00000000	      0.00000000	      0.00000000	      0.00000000	      0.00000000	      0.00000000	      0.00000000	      0.00000000	      0.00000000
      1.88500000	     15.64684534	      6.66302433	     -7.83900379	      0.57546802	      0.76274770	      0.54135788	      4.38701414	    -11.65405147	      7.41912442	    -59.46973889	     -5.00000000	      4.75790521	      2.84117423	     -5.00000000	      2.37690027	     -5.24599063	     23.76420952	     -2.00000000	      2.00000000	    -11.37218301	     11.42369495	     -4.80297476	    -13.04122657	      5.00000000	      2.94724141	      7.99212192	      1.56169091	      4.12814157	     -1.56154115	     20.46247766	      2.00000000	      2.00000000	    -28.40217373	    -12.59741630	     -2.19754974	      0.00000000	      0.00000000	      0.00000000	      0.00000000	      0.00000000	      0.00000000	      0.00000000	      0.00000000	      0.00000000	     -0.00042092	      0.00000000	      0.00000000	      0.00000000	      0.00000000	      0.00000000	      0.00000000	      0.00000000	      0.00000000	      0.00000000	      0.00000000	      0.00000000	      0.00000000	      0.00000000	      0.00000000	      0.00000000	      0.00000000	      0.00000000	      0.00000000	      0.00000000	      0.00000000	      0.00000000
      1.89000000	     16.26516039	      6.05857830	     -7.65819828	      0.58180719	      0.76400134	      0.54090192	      4.19886182	    -11.04627322	      6.71793895	    -58.39551392	     -5.00000000	      4.51079209	      3.31531689	     -4.98795945	      2.64652267	     -5.88762927	     23.67548891	     -2.00000000	      1.98848216	    -13.09616846	     10.95661291	     -5.28096772	    -12.23299981	      5.00000000	      3.07524134	      8.36723324	      0.90385770	      5.00000000	     -1.08403379	     20.21879491	      2.00000000	      2.00000000	    -29.28316078	    -11.84888188	     -2.65336425	      0.00000000	      0.00000000	      0.00000000	      0.00000000	      0.00000000	      0.00000000	      0.00000000	      0.00000000	      0.00000000	     -0.00042092	      0.00000000	      0.00000000	      0.00000000	      0.00000000	      0.00000000	      0.00000000	      0.00000000	      0.00000000	      0.00000000	      0.00000000	      0.00000000	      0.00000000	      0.00000000	      0.00000000	      0.00000000	      0.00000000	      0.00000000	      0.00000000	      0.00000000	      0.00000000	      0.00000000
      1.89500000	     16.15665830	      5.83774101	     -7.61053414	      0.58800761	      0.76423027	      0.54030121	      5.14674968	    -10.87293659	      6.61873703	    -57.69418337	     -5.00000000	      4.67463220	      3.41415502	     -4.96191820	      2.70808431	     -5.84421009	     23.66962011	     -2.00000000	      1.98746754	    -13.88522336	     10.87972625	     -5.31396905	    -11.56464324	      5.00000000	      3.14038516	      8.51880617	      0.94041728	      5.00000000	     -1.08362749	     20.19349587	      2.00000000	      2.00000000	    -29.27457597	    -11.48860832	     -2.98910271	      0.00000000	      0.00000000	      0.00000000	      0.00000000	      0.00000000	      0.00000000	      0.00000000	      0.00000000	      0.00000000	     -0.00042092	      0.00000000	      0.00000000	      0.00000000	      0.00000000	      0.00000000	      0.00000000	      0.00000000	      0.00000000	      0.00000000	      0.00000000	      0.00000000	      0.00000000	      0.00000000	      0.00000000	      0.00000000	      0.00000000	      0.00000000	      0.00000000	      0.00000000	      0.00000000	      0.00000000
      1.90000000	     16.14984132	      5.73175948	     -7.64429176	      0.59364765	      0.76433020	      0.53982570	      6.06488700	    -10.84405305	      6.51587517	    -56.95958787	     -5.00000000	      4.80600535	      3.48357573	     -4.96892870	      2.73157274	     -5.84307486	     23.66885843	     -2.00000000	      1.98728160	    -14.39909686	     10.89782667	     -5.30101942	    -11.51804348	      5.00000000	      3.15285688	      8.56448970	      0.91770526	      5.00000000	     -1.07079865	     20.19004475	      2.00000000	      2.00000000	    -29.54775611	    -11.39918918	     -3.09608905	      0.00000000	      0.00000000	      0.00000000	      0.00000000	      0.00000000	      0.00000000	      0.00000000	      0.00000000	      0.00000000	     -0.00042092	      0.00000000	      0.00000000	      0.00000000	      0.00000000	      0.00000000	      0.00000000	      0.00000000	      0.00000000	      0.00000000	      0.00000000	      0.00000000	      0.00000000	      0.00000000	      0.00000000	      0.00000000	      0.00000000	      0.00000000	      0.00000000	      0.00000000	      0.00000000	      0.00000000
      1.90500000	     16.78470960	      5.02543583	     -7.38629548	      0.60062887	      0.76541075	      0.53935530	      5.59259588	    -10.08314131	      5.64027271	    -55.52179158	     -5.00000000	      4.37007658	      3.76075391	     -4.83928120	      3.21054551	     -5.82540229	     23.59382165	     -2.00000000	      1.97588787	    -16.50469418	     10.32710590	     -6.14355946	    -10.10023774	      5.00000000	      3.35841809	      8.94836475	      0.15180894	      5.00000000	     -0.58547764	     19.83140393	      2.00000000	      2.00000000	    -30.25571556	    -10.40600728	     -3.74846644	      0.00000000	      0.00000000	      0.00000000	      0.00000000	      0.00000000	      0.00000000	      0.00000000	      0.00000000	      0.00000000	     -0.00042092	      0.00000000	      0.00000000	      0.00000000	      0.00000000	      0.00000000	      0.00000000	      0.00000000	      0.00000000	      0.00000000	      0.00000000	      0.00000000	      0.00000000	      0.00000000	      0.00000000	      0.00000000	      0.00000000	      0.00000000	      0.00000000	      0.00000000	      0.00000000	      0.00000000
      1.91000000	     16.65595075	      4.89916590	     -7.35238973	      0.60674201	      0.76527537	      0.53898809	      6.46089013	     -9.92001165	      5.62729223	    -54.55963291	     -5.00000000	      4.47937280	      3.89160406	     -4.83140974	      3.26691190	     -5.80149173	     23.59333588	     -2.00000000	      1.97639677	    -17.19765139	     10.27482003	     -6.10894040	     -9.54736048	      5.00000000	      3.31724127	      9.12704431	      0.12539495	      5.00000000	     -0.59738955	     19.81054941	      2.00000000	      2.00000000	    -30.22786665	    -10.19626659	     -4.10554191	      0.00000000	      0.00000000	      0.00000000	      0.00000000	      0.00000000	      0.00000000	      0.00000000	      0.00000000	      0.00000000	     -0.00042092	      0.00000000	      0.00000000	      0.00000000	      0.00000000	      0.00000000	      0.00000000	      0.00000000	      0.00000000	      0.00000000	      0.00000000	      0.00000000	      0.00000000	      0.00000000	      0.00000000	      0.00000000	      0.00000000	      0.00000000	      0.00000000	      0.00000000	      0.00000000	      0.00000000
      1.91500000	     16.54803971	      4.75051232	     -7.27723780	      0.61282910	      0.76507573	      0.53861997	      7.24053202	     -9.73530816	      5.60990986	    -53.49170753	     -5.00000000	      4.61793687	      4.05259389	     -4.83455894	      3.32940276	     -5.78449374	     23.59432419	     -2.00000000	      1.97736040	    -17.90125283	     10.17775669	     -6.10154656	     -9.01876488	      5.00000000	      3.27749515	      9.32134538	      0.07957451	      5.00000000	     -0.60542447	     19.79006856	      2.00000000	      2.00000000	    -30.24056579	     -9.93899843	     -4.47914840	      0.00000000	      0.00000000	      0.00000000	      0.00000000	      0.00000000	      0.00000000	      0.00000000	      0.00000000	      0.00000000	     -0.00042092	      0.00000000	      0.00000000	      0.00000000	      0.00000000	      0.00000000	      0.00000000	      0.00000000	      0.00000000	      0.00000000	      0.00000000	      0.00000000	      0.00000000	      0.00000000	      0.00000000	      0.00000000	      0.00000000	      0.00000000	      0.00000000	      0.00000000	      0.00000000	      0.00000000
